<svg xmlns="http://www.w3.org/2000/svg" viewBox="0 0 64 64" fill="none">
  <rect width="64" height="64" rx="14" fill="#0f1419"/>
  <path d="M12 20h8v4h-8v-4zm32 0h8v4h-8v-4zM20 12h4v8h-4v-8zm20 0h4v8h-4v-8z" fill="#06b6d4" opacity="0.6"/>
  <rect x="18" y="18" width="28" height="28" rx="4" stroke="#f59e0b" stroke-width="2" fill="none"/>
  <path d="M26 26h12v2H26v-2zm0 6h8v2h-8v-2zm0 6h12v2H26v-2z" fill="#fbbf24"/>
  <circle cx="32" cy="32" r="4" fill="#06b6d4"/>
  <path d="M32 18v6M32 40v6M18 32h6M40 32h6" stroke="#06b6d4" stroke-width="1.5" stroke-linecap="round"/>
</svg>
